<?xml version="1.0" encoding="utf-8"?>
<!-- Generator: Adobe Illustrator 19.0.0, SVG Export Plug-In . SVG Version: 6.00 Build 0)  -->
<!DOCTYPE svg PUBLIC "-//W3C//DTD SVG 1.1//EN" "http://www.w3.org/Graphics/SVG/1.1/DTD/svg11.dtd">
<svg version="1.1" id="Layer_1" xmlns="http://www.w3.org/2000/svg" xmlns:xlink="http://www.w3.org/1999/xlink" x="0px" y="0px"
	 viewBox="-358.7 255.1 104.9 85" style="enable-background:new -358.7 255.1 104.9 85;" xml:space="preserve">
<style type="text/css">
	.st0{fill:#fff;}
</style>
<path id="XMLID_325_" class="st0" d="M-308.9,269.6c5.1,0,10.1,1.7,12.7,3.8c6.4,5.2,5.9,12.3,2.7,16.6c-1.9,2.6-5.7,4.3-9.8,6.2
	c-5.8,2.6-12.4,5.6-13.7,11.4c-0.5,2.2,0.6,4.1,1.6,5.2c1.3,1.5,3.2,2.6,4.4,3c-0.7-2.5-1-5,0.1-7.3c1.9-3.8,5-4.5,8.9-5.4
	c0.5-0.1,1-0.2,1.5-0.3c6.3-1.5,11.2-3.4,14.6-7.7l0,0c4.4-5.7,5.6-15.6,0.4-21.4c-4.9-5.4-8.8-8.7-21.4-8.7
	c-10.7,0-17.6,5.3-20,7.6c0,0-3.5,3.9-1.8,5.8c0.9,1,2.9,1.1,3.9,0.2c0.7-0.6,1.7-1.9,2.6-2.9c0.5-0.6,1-1.3,1.5-1.7
	C-317.6,270.8-313.2,269.6-308.9,269.6z M-308.5,320c1.4-0.3,3.3,0,4.6,0.6c1.3,0.6,2.3,1.8,2.5,3.1c0.2,1.3-0.4,2.7-1.3,3.6
	c-1,0.9-2.2,1.5-3.6,1.7c-1.7,0.3-3.6,0-5.1-1c-1.4-1-2.3-2.8-2-4.6C-312.8,320.5-308.5,320-308.5,320z M-276.6,304.5
	c0.1,5.7-0.7,20.8-1.1,23.7c-0.2,1.4-0.5,3.3-1.7,4.5c-1.3,1.3-2.6,1.1-3.8,1.2c-5.2,0.9-21.3,1.1-35.8,0.5c-3.7,0-7.1,0.4-10.5,0.6
	c-1.8-0.3-3.4-1-4.8-2.4c-1.5-1.6-1.8-4.2-2-5.9c-0.4-7.5-0.3-15.6-0.6-22.9c0-3.6-0.1-8,1-12.7c0.5-2.3,1.6-4.9,3.6-6
	c2.1-1,3.7-0.7,5.6-1c8.1-0.8,19.7-1,28.7-0.9c1.1,0.1,2.2,0.3,3.3,0.4c-1.7,0.9-3.6,1.4-5.5,1.8c-8.6,0-18.9,0.2-26.4,1
	c-1.7,0.3-3.8,0.2-5.1,0.9c-1.4,0.7-2.2,2.6-2.7,4.6c-0.9,4.1-0.9,8.4-0.9,11.9c0.3,7.1,0.2,15.7,0.6,22.6c0.2,1.7,0.4,3.4,1.4,4.4
	s2.5,1.8,3.9,2c3.1-0.2,6.8-0.6,10.4-0.6c14.7,0.7,30.4,0.4,35.7-0.5c1.2,0,2.4-0.1,2.9-0.7c0.7-0.6,0.9-1.9,1.2-3.2
	c0.4-2.6,0.4-5.2,0.8-7.9l-0.4-16.6c-0.4-5.6,0-10.8-1.3-15.1c0-0.1-0.1-0.1-0.1-0.2c1.4,0.3,2.1,1.8,2.6,3.2
	C-277,296.3-276.6,304.6-276.6,304.5z"/>
</svg>
