<?xml version="1.0" encoding="utf-8"?>
<!-- Generator: Adobe Illustrator 19.0.0, SVG Export Plug-In . SVG Version: 6.00 Build 0)  -->
<!DOCTYPE svg PUBLIC "-//W3C//DTD SVG 1.1//EN" "http://www.w3.org/Graphics/SVG/1.1/DTD/svg11.dtd">
<svg version="1.1" id="Layer_1" xmlns="http://www.w3.org/2000/svg" xmlns:xlink="http://www.w3.org/1999/xlink" x="0px" y="0px"
	 viewBox="-358.7 255.1 104.9 85" style="enable-background:new -358.7 255.1 104.9 85;" xml:space="preserve">
<style type="text/css">
	.st0{fill:#fff;}
</style>
<path id="XMLID_349_" class="st0" d="M-346.4,291.1c10-0.7,16.8-1.1,28.7-1.2c3.2,0,9.7,0,17.6,0h6.2c1.1,0,2,0,3.2-0.1
	c0.6,0,1.2,0,2,0.3c0.8,0.3,1.4,1.1,1.6,1.8c1.1,4.9,0.6,9.3,0.2,13.9c-0.4,4.4-1,8.8-1.1,12.7c0.1,2,0.4,3.9-0.1,6
	c-0.2,0.5-0.3,1.1-1,1.7c-0.4,0.3-0.8,0.6-1.4,0.8c-0.6,0.2-1.5,0.2-2-0.2c-0.6-0.4-0.9-0.9-1.1-1.3c-1.3-3.6-0.7-5.9-0.9-7.9
	c0-1.8,0-2.8,0-2.8s0.1-1-0.2-2.6c-0.1-0.8-0.5-1.8-0.9-2.2c-0.6-0.5-2.1-0.6-3.6-0.6c-6.1,0.4-14.9,0.2-23.7,0.2
	c-4.5-0.1-8.9,0.2-13.5,0c-1.1,0-2.2-0.1-3.1,0.1c-0.3-0.2-0.8,0.8-0.9,1.6c-0.2,1.8,0.3,3.9,0.6,5.8c0.3,2,0.7,3.9,0.3,6
	c-0.2,1-0.7,2.1-1.8,2.8c-1.1,0.6-2.1,0.5-3,0.4c-0.9-0.2-1.7-0.5-2.4-0.9c-0.4-0.3-0.7-0.5-1-1c-0.2-0.2-0.4-0.9-0.4-1.2
	c-0.2-1.4,0-2.4,0.1-3.3c1.6-11.6-0.1-18.9,3.1-28.4c-1.9,9.7,0.5,16.6-1.1,28.6c-0.1,0.8-0.2,1.8-0.1,2.7l0.2,0.5l0.4,0.3
	c0.4,0.3,1,0.5,1.6,0.6c2.9,0.9,2.8-3,2.1-6.8c-0.3-1.9-0.8-4-0.6-6.4c0.2-1.1,0.5-2.9,2.5-3.3c1.3-0.2,2.4-0.1,3.5-0.1
	c4.3,0.2,9-0.1,13.4,0c9,0,17.3,0.2,23.7-0.2c1.6,0.1,3.1,0,4.7,0.8c1.6,1.3,1.6,2.6,1.8,3.6c0.3,1.9,0.2,3,0.2,3s0,1.1,0,2.8
	c0.1,1.5-0.2,4.6,0.7,7c0.4,0.6,0.3,0.7,0.7,0.5c0.2-0.1,0.5-0.3,0.8-0.5c0,0,0.2-0.3,0.3-0.6c0.4-1.5,0.2-3.4,0.1-5.4
	c0-4.2,0.7-8.5,1.1-12.9c0.4-4.3,0.8-9.1-0.1-12.9c0-1.2-2.9-0.5-5-0.7h-6.2c-7.9,0-14.4,0-17.6,0
	C-329.6,292-336.4,291.7-346.4,291.1 M-317.5,283.3c0.3-2.3,0.1-4.4,0.5-6.2c0.3-1.3,2.8-1.5,5.4-1.4c3.1,0.2,12.1-0.5,20.4-0.5
	c8.2-0.1,15.9-0.2,15.9-0.3c0,0,1.9-0.2,4.7-0.1c1.4,0.1,2.7,0.4,3.2,1.8c0.5,1.4,0.2,3.4-0.2,5.4c-0.5,4.3-1,8.5-1,12.3
	c0,2,0.2,3.5,0.4,5.1c0.3,1.5,0.3,2.3,0.2,2.2c-0.5,0.3-2,0.4-2.3,0c-0.5-0.4-0.7-1.4-0.8-2.4c-0.2-2,0.1-4-0.2-6.3
	c-0.4,2.3-1.1,4.1-1.3,6.3c0,1.1-0.2,2.4,1,3.7c0.6,0.6,1.5,0.9,2.3,0.9c0.8,0,1.5,0,2.5-0.7c0.6-0.4,0.9-1.4,0.8-2.1
	c0-0.7-0.2-1.3-0.3-2c-0.2-1.2-0.4-3-0.4-4.7c0-3.5,0.4-8,0.9-11.9c0.3-2,0.9-4.2,0.1-6.4c-0.4-1.1-1.2-2-2.2-2.5s-1.9-0.5-2.7-0.6
	c-3.1-0.1-4.9,0.1-4.9,0.1c0,0.2-7.4,0.2-15.8,0.3c-8.3,0.1-17.5,0.7-20.4,0.5c-1.4,0-2.7,0.1-4,0.4c-1.2,0.3-2.7,1.2-2.8,2.7
	C-318.5,279.2-317.8,281-317.5,283.3 M-327.4,289.8c3.4-1.8,5.6-3.3,9.6-5.3c1.1-0.5,3.3-1.5,6.3-1.9c2.9-0.3,6.7-0.4,9.9-0.1
	c1.6,0.2,3.1,0.8,4.3,1.6c0.6,0.4,1.6,0.9,2.5,0.8c0.9,0,1.5-0.3,2.1-0.5c2.2-0.7,3.8-0.9,3.8-1c-0.1,0.1,6.2-1.6,12.8-0.6
	c1.6,0.3,3.2,1,3.8,2.1c0.7,1.2,0.3,2.6-0.4,3.8c-1.6,2.3-3.7,3.7-4.7,4.4c-3.8,2.5-6,3.8-9.3,5.9c3.7-1.2,6.2-2,10.2-4.6
	c1-0.8,3.3-2.1,5.1-4.9c0.9-1.3,1.6-3.6,0.4-5.4c-1.1-1.8-3.2-2.5-4.9-2.9c-7.1-1-13.3,0.9-13.3,0.7c0,0-1.6,0.2-4,1
	c-0.5,0.2-1.2,0.4-1.7,0.4s-0.9-0.2-1.6-0.6c-1.4-0.8-3.1-1.5-4.9-1.8c-3.6-0.3-7.1-0.2-10.3,0.1c-3.1,0.4-5.6,1.5-6.7,2
	C-322.7,285.2-324.5,287.2-327.4,289.8 M-271.5,294.3c-1,0.2-1.6,0.3-2.4,0.9c-0.8,0.7-5.6,3.6-5.6,3.7c-0.1-0.1-4.6,3.5-5.3,4.3
	c-0.8,0.7-1,1.2-1.4,2.2c1-0.1,1.6-0.3,2.4-1c0.8-0.8,5.1-4.2,5.2-4.1c0,0,4.7-3,5.6-3.7C-272.1,295.8-271.8,295.2-271.5,294.3
	 M-334.3,295.6c-0.5,0.5-0.8,0.8-0.8,1.4c0,0.7,0,3.9,0,3.9s0,3.3,0,3.9s0.3,0.9,0.8,1.5c0.5-0.5,0.8-0.8,0.8-1.5c0-0.7,0-3.9,0-3.9
	s0-3.3,0-3.9C-333.5,296.5-333.8,296.1-334.3,295.6 M-328.5,296c-0.5,0.6-0.8,0.9-0.8,1.6c0,0.7,0,4.3,0,4.3s0,3.6,0,4.3
	c0,0.7,0.3,1,0.8,1.6c0.5-0.6,0.8-0.9,0.8-1.6c0-0.7,0-4.3,0-4.3s0-3.6,0-4.3C-327.8,297-328,296.6-328.5,296 M-321.5,295.7
	c-0.5,0.6-0.8,0.9-0.8,1.6c0,0.7,0,4.3,0,4.3s0,3.6,0,4.3s0.3,1,0.8,1.6c0.5-0.6,0.8-0.9,0.8-1.6c0-0.7,0-4.3,0-4.3s0-3.6,0-4.3
	C-320.7,296.6-321,296.2-321.5,295.7 M-315.8,297.4c-0.5,0.3-0.8,0.6-0.8,1s0,2.7,0,2.7s0,2.2,0,2.7c0,0.4,0.3,0.6,0.8,1
	c0.5-0.3,0.8-0.6,0.8-1c0-0.4,0-2.7,0-2.7s0-2.2,0-2.7S-315.3,297.7-315.8,297.4 M-340.7,297.4c-0.5,0.3-0.8,0.6-0.8,1s0,2.7,0,2.7
	s0,2.2,0,2.7c0,0.4,0.3,0.6,0.8,1c0.5-0.3,0.8-0.6,0.8-1c0-0.4,0-2.7,0-2.7s0-2.2,0-2.7C-340,297.9-340.2,297.7-340.7,297.4
	 M-310.1,295.5c-0.5,0.5-0.8,0.9-0.8,1.5c0,0.7,0,4,0,4s0,3.4,0,4s0.3,1,0.8,1.5c0.5-0.5,0.8-0.9,0.8-1.5c0-0.7,0-4,0-4s0-3.4,0-4
	C-309.3,296.3-309.6,296-310.1,295.5 M-304.5,296.4c-0.5,0.5-0.8,0.9-0.8,1.5c0,0.7,0,4.1,0,4.1s0,3.4,0,4.1c0,0.6,0.3,1,0.8,1.5
	c0.5-0.5,0.8-0.9,0.8-1.5c0-0.7,0-4.1,0-4.1s0-3.4,0-4.1S-304,296.9-304.5,296.4 M-296.1,295.9c-0.5,0.6-0.8,1-0.8,1.8
	c0,0.8,0,4.8,0,4.8s0,4,0,4.8c0,0.7,0.3,1.2,0.8,1.8c0.5-0.6,0.8-1,0.8-1.8c0-0.8,0-4.8,0-4.8s0-4,0-4.8
	C-295.3,297-295.6,296.5-296.1,295.9"/>
</svg>
