<?xml version="1.0" encoding="utf-8"?>
<!-- Generator: Adobe Illustrator 19.0.0, SVG Export Plug-In . SVG Version: 6.00 Build 0)  -->
<!DOCTYPE svg PUBLIC "-//W3C//DTD SVG 1.1//EN" "http://www.w3.org/Graphics/SVG/1.1/DTD/svg11.dtd">
<svg version="1.1" id="Layer_1" xmlns="http://www.w3.org/2000/svg" xmlns:xlink="http://www.w3.org/1999/xlink" x="0px" y="0px"
	 viewBox="-358.7 255.1 104.9 85" style="enable-background:new -358.7 255.1 104.9 85;" xml:space="preserve">
<style type="text/css">
	.st0{fill:#fff;}
</style>
<path id="XMLID_334_" class="st0" d="M-264.2,284.1c-1.4-2-3.2-3.8-5-5.4c-1.8-1.5-3.9-3.2-6.5-3.7c-2.5-0.5-4.9-0.2-7-0.6
	c-2.2-0.4-3.5-1.5-5.4-2.9c-3.7-2.5-7.5-4-10.8-4.8c-6.8-1.5-11.4-0.1-11.3-0.1c0,0-1.1,0.2-3,1c-1.8,0.8-4.5,2.4-6.4,5.4
	c-1,1.5-1.7,3.3-2.2,5.3l-0.2,0.7c-0.1,0.4-0.1,0.7-0.2,0.9c0,0.6-0.1,1-0.1,1.5s-0.1,1-0.2,1.3c-0.1,0.3,0,0.2-0.4,0.4
	c-1.7,0.4-4,0.1-6.4,0.1c-2.5,0.3-4.9,1.1-7,2.5c-2.1,1.5-3.7,3.6-4.6,6.1c-0.4,1.2-0.7,2.4-0.7,3.9c0,1.4,0.5,2.6,0.7,3.6
	c0.7,3.9-3.2,8.4-1.6,13.3c1.1,2.6,3.1,3.4,4.6,4.5c1.6,1.1,3.1,2,4.6,2.7c1.4,0.7,2.8,1.5,4.2,1.7c1.3,0.3,2.3,0.4,3.1,0.6
	c2.6,0.5,4.2,3.4,7.1,4.4c2.7,0.9,5.2,1,7.7,0.7c4.3-0.8,6.7-4.3,10.4-5.8c2.1-0.4,4.2-0.6,6.1-1.9c1-1.2,0.8-2.4,1.8-2.8
	c0.8-0.6,1.8-0.7,3-0.8c4.7-0.5,9.9-0.2,15.9-3.6c0.8-0.5,1.7-1.2,2.6-2.2c1-1,1.6-2.4,2.6-3.4c0.9-1.1,2.5-1.8,3.9-3.7
	c0.3-0.5,0.5-0.9,0.8-1.6c0.1-0.4,0.3-0.8,0.5-1.2c0.4-0.8,1-1.6,1.5-2.6C-259.5,293.3-261.4,287.9-264.2,284.1z M-263.8,296.7
	c-0.5,0.9-1.1,1.7-1.6,2.7c-0.3,0.5-0.4,1-0.6,1.5l-0.5,1c-0.8,1.2-2.6,2.1-3.7,3.5c-1.2,1.4-1.8,2.7-2.6,3.4
	c-0.8,0.9-1.6,1.5-2.2,1.9c-5.1,3-10.5,3-15,3.9c-1.1,0.1-2.5,0.4-3.5,1.3c-0.5,0.3-1,1.1-1.1,1.7c-0.1,0.6-0.3,1.1-0.6,1.5
	c-1,0.9-2.5,1.4-4.1,1.9c-4.8,0.6-8,4.6-12,4.9c-2.2,0.2-4.7-0.1-6.9-0.9c-1.1-0.4-2-1.2-3.1-2.2c-1-0.9-2.4-2.1-4.2-2.5
	c-0.9-0.2-2-0.3-3.2-0.6c-1.1-0.2-2.3-0.9-3.7-1.5c-1.4-0.7-2.8-1.6-4.4-2.6c-1.4-1.1-3.4-2.2-3.9-3.6c-0.5-1.6-0.2-3.8,0.5-5.8
	c0.6-2.1,1.7-4.4,1.2-7.2c-1.7-4.4,0.3-9,3.8-11.6c1.7-1.2,4-2,6-2.2c2.1-0.1,4.3,0.4,6.8-0.2c0.6-0.1,1.6-1,1.7-1.7
	c0.2-0.7,0.2-1.2,0.3-1.8c0-0.5,0-1,0.1-1.5l0.1-0.5c0.1-0.4,0.1-0.5,0.2-0.8c0.4-1.8,1.1-3.4,1.9-4.7c3.7-5.2,8.5-5.5,8.3-5.6
	c-0.1,0,4-1.3,10.4,0.1c3.1,0.7,6.7,2.1,10.1,4.4c0.8,0.6,1.7,1.3,2.7,1.9c0.5,0.3,1.1,0.6,1.7,0.8c0.4,0.2,1.1,0.4,1.7,0.5
	c2.5,0.5,4.8,0.2,6.9,0.6c2.1,0.4,3.9,1.8,5.7,3.3c1.8,1.5,3.4,3.2,4.7,5C-263.2,288.7-261.8,293.5-263.8,296.7z M-315.9,309.7
	c4,0,6.2,0.5,9.5,1.5c-3.3,1-5.5,1.5-9.5,1.5c-1.9-0.2-8.3,1.3-14.7,0.5c-0.8-0.1-1.6-0.4-2.4-0.6h-0.1c-0.2-0.8-0.6-2.1-0.6-2.5
	l0,0c0.2-0.2,0.5-0.4,0.7-0.7l0.8-0.7c1-1,2-1.7,2.8-2.4c1.7-1.3,2.8-2.1,2.8-2.1s4.5-3,9.2-6.4c0.1-0.1,0.2-0.2,0.3-0.2
	c-2.1,0.1-3.8,0.1-4.7,0.1c-4,0.1-6.2-0.4-9.5-1.4c3.3-1,5.5-1.5,9.5-1.6c1.1,0,3.2-0.1,5.8-0.2c0.6,0,1.3,0,2-0.1h1.1h0.3h0.1l0,0
	l1,2.7l0,0l0,0c0,0-3,2.4-4.1,3.2c-4.9,3.5-9.3,6.4-9.3,6.4s-1.1,0.8-2.7,2c-0.6,0.5-1.2,1-1.9,1.6
	C-324.2,310.8-318.2,309.6-315.9,309.7z M-296.6,297.9c2.4,0,3.8,0.3,5.8,0.9c-2,0.6-3.4,0.9-5.8,0.9c-1.2-0.1-5.1,0.8-9,0.3
	c-0.5-0.1-1-0.2-1.5-0.4h-0.1c-0.1-0.7-0.2-1-0.3-1.5l0,0c0.1-0.1,0.3-0.3,0.4-0.4l0.5-0.4c0.6-0.6,1.2-1,1.7-1.5
	c1-0.8,1.7-1.3,1.7-1.3s2.7-1.9,5.6-3.9c0.1,0,0.1-0.1,0.2-0.1c-1.3,0-2.3,0.1-2.9,0.1c-2.4,0-3.8-0.3-5.8-0.8c2-0.6,3.4-0.9,5.8-1
	c0.7,0,2,0,3.6-0.1c0.4,0,0.8,0,1.2,0h0.6h0.2l0,0c0,0,0.8,2,0.6,1.6l0,0l0,0l0,0c0,0-1.8,1.4-2.5,1.8c-3,2.1-5.7,3.9-5.7,3.9
	s-0.7,0.5-1.7,1.2c-0.3,0.3-0.7,0.6-1.2,1C-301.6,298.6-297.9,297.8-296.6,297.9z M-286.3,288.7c0.3-0.3,0.6-0.5,0.8-0.7
	c0.7-0.5,1.2-0.9,1.2-0.9s2-1.3,4.1-2.9c0.5-0.4,1.8-1.4,1.8-1.4l0,0l0,0l0,0c-0.2-0.5-0.5-1.2-0.5-1.2l0,0h-0.1h-0.1h-0.5
	c-0.3,0-0.6,0-0.9,0c-1.2,0-2.1,0.1-2.6,0.1c-1.8,0-2.7,0.3-4.2,0.7c1.5,0.4,2.5,0.6,4.2,0.6c0.4,0,1.2,0,2.1,0l-0.1,0.1
	c-1.9,1.6-3.9,2.9-3.9,2.9s-0.5,0.4-1.3,0.9c-0.4,0.3-0.8,0.6-1.3,1.1l-0.3,0.3l-0.2,0.2l-0.1,0.1l0,0l0,0l0,0l0,0
	c0-0.1,0.2,0.7,0.2,1.1h0.1c0.3,0.1,0.7,0.2,1.1,0.3c2.9,0.4,5.7-0.3,6.5-0.2c1.8,0,2.8-0.2,4.2-0.7c-1.5-0.4-2.5-0.7-4.2-0.7
	C-281.3,288.4-284,288.9-286.3,288.7z M-279.1,281.8L-279.1,281.8L-279.1,281.8z M-335.9,323.7c-0.3-0.2-1-0.7-1.9-1.2
	c-0.9-0.4-2.1-1.3-3.9-0.5c-1.6,1.2-1.3,2.6-1.4,3.4c0,0.8,0.1,1.3,0.1,1.3s0.1,0.5,0.2,1.3c0.1,0.8,0.7,2.2,1.9,3
	c1.2,0.8,2.7,0.9,3.8,0.5c1.1-0.4,1.8-1,2.1-1.4c1.1-1.2,1.2-2.3,1-3.6c0.1,0,0.1,0,0.2,0C-334.3,325.3-334.7,324.5-335.9,323.7z
	 M-336.3,328.7c-0.3,0.5-2.2,1.6-3.5,0.7c-1.3-0.7-1.1-2.9-1.2-2.9c0,0-0.1-0.5-0.1-1.1s0.2-1.6,0.4-1.7c0.2-0.2,1.3,0.1,2,0.5
	c0.8,0.4,1.4,0.8,1.7,1.1c1.1,0.7,1.8,1,3,1.3C-334.9,327.4-335.5,327.9-336.3,328.7z M-348,328.2c-0.6-0.4-1.2-0.4-1.8-0.2
	c-0.7-0.3-1.4-0.5-2.3,0.4c-0.3,0.3-0.6,1.2-0.4,2c0.2,0.8,0.6,1.6,1.2,2.1c1,1.3,2.8,1.6,2.8,1.5c-0.1,0.1,2.5,0,2.7-2.5
	C-345.9,329.5-347.6,328.6-348,328.2z M-348.2,332.2l-0.2,0.1c0.1,0-0.7-0.1-1.5-0.9c-0.8-0.9-0.8-1.8-0.7-1.7
	c0.1-0.1,0.2-0.4,0.5-0.7c0.4,0.4,0.6,0.7,1,0.9c0.3,0.1,1.4,1.1,1.3,1.8C-347.7,331.9-347.9,332-348.2,332.2z"/>
</svg>
