<?xml version="1.0" encoding="utf-8"?>
<!-- Generator: Adobe Illustrator 19.0.0, SVG Export Plug-In . SVG Version: 6.00 Build 0)  -->
<!DOCTYPE svg PUBLIC "-//W3C//DTD SVG 1.1//EN" "http://www.w3.org/Graphics/SVG/1.1/DTD/svg11.dtd">
<svg version="1.1" id="Layer_1" xmlns="http://www.w3.org/2000/svg" xmlns:xlink="http://www.w3.org/1999/xlink" x="0px" y="0px"
	 viewBox="-358.7 255.1 104.9 85" style="enable-background:new -358.7 255.1 104.9 85;" xml:space="preserve">
<style type="text/css">
	.st0{fill:#fff;}
</style>
<path id="XMLID_297_" class="st0" d="M-311.9,298.3c1.4,1.7,1,4.1,0.1,5.2c-0.7,1.2-1.8,2.1-2.6,2.3c-2.8,0.9-4.1,0.7-5,2.1
	c-0.9,1.2-1.2,3-1.5,5c-0.3-2-0.7-3.7,0.1-5.7c0.4-0.9,1.3-2,2.4-2.4c1.1-0.5,2.3-0.6,3.2-1c0.6,0,3-2.4,1.6-4.1
	c-1.4-2-5.7-1.4-8.7,0c-6.8,3.1-1.6,10.9-2.3,10.6c0.2,0,0.8,6.6,3.1,13.1c0.6,1.5,1.3,3.5,2.2,4.4c0.6,0.8,2.3,0.5,3.2-0.3
	c1.9-1.8,2.1-4.5,1.7-5.2c-1.6-3.4-5.8-4.9-6.1-9.3c1.7,3.9,5.4,3.4,8.2,8.5c0.6,1.5,0.5,4.9-2.3,7.6c-0.7,0.7-1.8,1.1-2.8,1.3
	c-1.1,0.2-2.6-0.2-3.4-1.1c-1.5-1.8-1.9-3.4-2.7-5.2c-2.4-7-2.9-13.5-3.2-13.4c0-0.1-0.3-1.4-1.1-4c-0.3-1.5-0.3-3.1,0.4-4.9
	c0.7-1.8,2.4-3.3,4.2-4.1c1.8-0.9,3.8-1.3,5.7-1.4C-315.5,296-313.3,296.7-311.9,298.3z M-316.4,288.4c-0.8,0.3-1.4,0.6-1.8,1.5
	c-0.3,0.4-0.9,2.3,0.2,3.7c1,1.3,2.6,1.7,2.6,1.6c0,0,0.4,0.1,1.1-0.1c0.7-0.2,1.4-1,1.5-1.8c0.4-1.6-0.2-3.1-0.5-3.6
	c-0.4-0.9-1.5-1.3-2.3-0.9c0.7,0.5,0.7,0.9,1.1,1.5c0.2,0.3,0.6,1.6,0.4,2.7c-0.2,1.1-1.1,0.8-1.1,0.9c0.1,0.1-1-0.2-1.6-1
	c-0.7-0.8-0.3-2-0.1-2.4C-316.6,289.8-316.5,289.3-316.4,288.4z M-327.4,300.5c0.3,0,0.6-1.2,0.5-2.2c0.2,0,0.4-0.1,0.6-0.2
	c-0.4-0.4-0.5-0.7-0.8-0.9c-0.2-0.1-0.4-0.6-0.1-1.2c0.2-0.6,0.7-0.9,0.6-0.9c0.1,0,0.1-0.2,0.5,0.3c0.3,0.4,0.1,1.2,0,1.4
	c-0.2,0.4-0.1,0.7-0.1,1.3c0.6-0.1,0.9-0.4,1.1-0.9c0.1-0.2,0.2-0.6,0.2-1.1c0.3,0.3,0.7,0.5,1.2,0.4c0.6-0.1,0.8-0.4,0.8-0.4
	c0.3,0,0.6-0.7,0.7-1.6c0.1,0.1,0.1,0.1,0.2,0.1c0.8,0.6,1.4,0.3,1.9,0c-0.6-0.3-0.9-0.5-1.2-0.8c-0.2-0.1-0.6-0.9-0.5-1.8
	c0.1-0.9,0.5-1.5,0.5-1.5c0.1,0,0.1-0.4,0.8,0.3c0.5,0.5,0.5,1.7,0.5,2c-0.1,0.6,0.1,1,0.2,1.6c0.5-0.4,0.8-0.8,0.9-1.6
	c0-0.4,0.2-1.6-0.7-2.7c-0.4-0.5-1-0.9-1.7-0.8c-0.6,0.1-0.8,0.5-0.8,0.5c-0.1,0-0.7,1-0.8,2c-0.7-0.5-1.2-0.3-1.7,0.1
	c0.5,0.3,0.7,0.5,1,0.8c0.2,0.1,0.5,0.7,0.4,1.5c-0.1,0.8-0.4,1.3-0.4,1.2c-0.1,0,0,0.3-0.6-0.3c-0.4-0.5-0.3-1.4-0.3-1.7
	c0.1-0.5-0.1-0.8-0.2-1.4c-0.5,0.3-0.8,0.7-0.9,1.3c0,0.2,0,0.5,0,1c-0.2-0.2-0.5-0.3-0.8-0.3c-0.5,0-0.7,0.2-0.7,0.2
	c-0.1,0-0.9,0.6-1.1,1.5c-0.2,0.4-0.2,0.9-0.1,1.3c-0.1,0.1-0.3,0.2-0.4,0.3c0.4,0.4,0.4,0.5,0.5,0.7c0.4,0,0.1,1.9,0,1.9
	c-0.1-0.3-0.4-1.1-0.3-1.4c0-0.4-0.1-0.6-0.4-1c-0.4,0.2-0.7,0.5-0.7,0.9c0,0.3-0.2,1,0.3,1.8c0.2,0.4,0.6,0.7,1.2,0.7
	C-327.5,300.8-327.4,300.5-327.4,300.5z M-301.2,284.8L-301.2,284.8L-301.2,284.8L-301.2,284.8c-0.3,0,2.6,0.3,1.4,0.2v-0.1l0.3-0.3
	l0.4-0.4l0.6-0.9c0.7-1.2,1.2-2.6,1.6-3.8c0.5-1.3,0.8-2.3,1.4-3.5c0.3-0.5,0.6-1.6,0-2.4c-0.6-0.8-1.2-0.9-1.6-1.1
	c-1.7-0.9-2.9-1.4-2.9-1.4s-1.1-0.6-3.1-1c-2.1-0.3-4.7-0.4-7.5,0c-2.8,0.4-5.6,1.3-7.8,2.3c-0.5,0.3-1,0.3-1.8,0.9
	c-0.8,0.8-0.6,1.8-0.5,2.2c0.3,0.9,0.6,1.6,0.8,2.1c1.8,3.3,3.1,4.6,4.5,7.3c-0.3-3-1.4-5-2.9-8c-0.2-0.4-0.4-1.1-0.7-1.8
	c-0.1-0.4,0-0.5,0-0.5c0.1-0.1,0.7-0.3,1.3-0.6c2.2-0.9,4.8-1.8,7.4-2.1c2.5-0.4,5.2-0.3,6.9,0c1.7,0.4,2.8,0.9,2.8,0.9
	s1.1,0.5,2.8,1.3c1,0.7,1.2,0.3,0.8,1.4c-0.5,1-1,2.4-1.4,3.6c-0.4,1.2-0.9,2.5-1.5,3.5l-0.4,0.6c-0.3-0.3-0.6-0.5-1-0.7
	c-0.2-0.1-0.4-0.2-0.6-0.2v-2c0-0.2-0.2-0.3-0.6-0.5c-0.4,0.2-0.5,0.3-0.6,0.5v1.7c-0.5-0.1-1-0.2-1.4-0.2v-2.5
	c0-0.2-0.2-0.4-0.6-0.6c-0.4,0.2-0.5,0.3-0.6,0.6v2.5c-0.6,0-1.1,0-1.5,0l0,0c0-0.5,0-1.9,0-1.9s0-1.7,0-2c0-0.3-0.2-0.5-0.6-0.7
	c-0.4,0.3-0.5,0.4-0.6,0.7c0,0.3,0,2,0,2s0,1.5,0,2c-0.5,0-0.9,0.1-1.4,0.2v-2.5c0-0.2-0.2-0.4-0.6-0.6c-0.4,0.2-0.5,0.3-0.6,0.6
	v2.7c-0.5,0.1-1,0.3-1.5,0.5v-1.6c0-0.2-0.2-0.3-0.6-0.4c-0.4,0.1-0.5,0.3-0.6,0.4v1.9c-0.7,0.4-1.3,0.9-1.9,1.6
	c2.7-1.4,4.8-1.2,8.3-1.4c0.9,0,3.1-0.2,4.8,0.6C-301.8,284-301.5,284.3-301.2,284.8z M-292.2,297.7c-1.8-0.9-3.8-1.3-5.7-1.4
	c-2.1-0.2-4.3,0.5-5.7,2.1c-1.4,1.7-1,4.1-0.1,5.2c0.7,1.2,1.8,2.1,2.6,2.3c2.8,0.9,4.2,0.7,5,2.1c0.9,1.2,1.1,3,1.5,5
	c0.3-2,0.7-3.7-0.1-5.7c-0.3-0.9-1.3-2-2.4-2.4c-1.1-0.5-2.3-0.6-3.2-1c-0.6,0-3-2.4-1.6-4.1c1.4-2,5.7-1.4,8.7,0
	c6.8,3.1,1.6,10.9,2.3,10.6c-0.2,0-0.8,6.6-3.1,13.1c-0.6,1.5-1.3,3.5-2.2,4.4c-0.6,0.8-2.3,0.5-3.2-0.3c-1.9-1.8-2.1-4.5-1.7-5.2
	c1.6-3.4,5.8-4.9,6.1-9.3c-1.7,3.9-5.4,3.4-8.2,8.5c-0.6,1.5-0.5,4.9,2.3,7.6c0.7,0.7,1.8,1.1,2.8,1.3c1.1,0.2,2.6-0.2,3.4-1.1
	c1.5-1.8,1.9-3.4,2.7-5.2c2.4-7,2.9-13.5,3.2-13.4c0-0.1,0.3-1.4,1.1-4c0.3-1.5,0.3-3.1-0.4-4.9C-288.7,300-290.4,298.5-292.2,297.7
	z M-299.9,288.9c-0.8-0.5-1.8,0-2.3,0.9c-0.3,0.5-0.9,2.1-0.5,3.6c0.1,0.8,0.8,1.6,1.5,1.8c0.7,0.2,1.1,0.1,1.1,0.1
	c0,0.1,1.6-0.3,2.6-1.6c1.1-1.4,0.4-3.4,0.2-3.7c-0.5-0.9-1-1.2-1.8-1.5c0.1,0.8,0.2,1.4,0.6,2c0.2,0.4,0.6,1.6-0.1,2.4
	c-0.6,0.9-1.7,1.1-1.6,1c0,0-0.9,0.2-1.1-0.9c-0.3-1.1,0.2-2.4,0.4-2.7C-300.6,289.8-300.6,289.4-299.9,288.9z M-286,298.4
	c0,0.3,0.2,1-0.3,1.8c-0.2,0.4-0.6,0.7-1.2,0.7c-0.6-0.1-0.7-0.4-0.7-0.4c-0.3,0-0.6-1.2-0.5-2.2c-0.2,0-0.4-0.1-0.6-0.2
	c0.4-0.4,0.5-0.7,0.8-0.9c0.2-0.1,0.4-0.6,0.1-1.2c-0.2-0.6-0.7-0.9-0.6-0.9c-0.1,0-0.1-0.2-0.5,0.3c-0.3,0.4-0.1,1.2,0,1.4
	c0.2,0.4,0.1,0.7,0.1,1.3c-0.6-0.1-0.9-0.4-1.1-0.9c-0.1-0.2-0.2-0.6-0.2-1.1c-0.3,0.3-0.7,0.5-1.2,0.4c-0.6-0.1-0.8-0.4-0.8-0.4
	c-0.3,0-0.6-0.7-0.7-1.6c-0.1,0.1-0.1,0.1-0.2,0.1c-0.8,0.6-1.4,0.3-1.9,0c0.6-0.3,0.9-0.5,1.2-0.8c0.2-0.1,0.6-0.9,0.5-1.8
	s-0.5-1.5-0.5-1.5c-0.1,0-0.1-0.4-0.8,0.3c-0.5,0.5-0.5,1.7-0.4,2c0,0.6-0.1,1-0.2,1.6c-0.5-0.4-0.8-0.8-0.9-1.6
	c0-0.4-0.2-1.6,0.7-2.7c0.4-0.5,1-0.9,1.7-0.8c0.6,0.1,0.8,0.5,0.8,0.5c0.1,0,0.7,1,0.8,2c0.7-0.5,1.2-0.3,1.7,0.1
	c-0.5,0.3-0.7,0.5-1,0.8c-0.2,0.1-0.5,0.7-0.4,1.5c0.1,0.8,0.4,1.3,0.4,1.2c0.1,0,0,0.3,0.6-0.3c0.4-0.5,0.3-1.4,0.3-1.7
	c-0.1-0.5,0.1-0.8,0.2-1.4c0.5,0.3,0.8,0.7,0.9,1.3c0,0.2,0,0.5,0,1c0.2-0.2,0.5-0.3,0.8-0.3c0.5,0,0.7,0.2,0.7,0.2
	c0.1,0,0.9,0.6,1.1,1.5c0.2,0.4,0.2,0.9,0.1,1.3c0.1,0.1,0.3,0.2,0.4,0.3c-0.4,0.4-0.4,0.5-0.5,0.7c-0.3,0-0.2,1.5,0,1.8
	c0,0,0.1-0.1,0.2-0.2l0.2-1.1c0-0.4,0.1-0.6,0.4-1C-286.3,297.6-286,297.9-286,298.4z M-287.3,299.8
	C-287.3,299.8-287.4,299.8-287.3,299.8C-287.4,299.9-287.3,299.9-287.3,299.8z M-271.9,292.9c-0.2,3.8-0.7,11.1-0.5,20.3
	c0,2.3-0.1,4.7-0.2,7.2c-0.1,1.2-0.2,2.5-0.4,3.8c-0.2,1.4-0.7,2.8-1.4,4c-1.5,2.2-3.2,4.7-6.3,5.7c-3,0.9-5.6,0.5-8.3,0.7
	c-10.6,0.3-20.8,0.5-28.3-0.1c-7.5-0.5-12.3-1.5-12.3-1.4c0,0-1.2-0.2-3.3-0.7c-2-0.5-5.9-1.5-7.7-5.5c-1.6-3.9-0.7-8.3-0.8-12.9
	c0.1-4.6,0.1-9.7,0.2-14.8c0-5.1,0.1-10.4,0.2-15.6c0.1-2.6,0.2-5.1,0.3-7.6c0.1-2.4,0.2-5.1,1.8-7.4c1.7-2.4,4.5-3,6.6-3.2
	c2.2-0.2,4.1-0.2,6-0.2c3.6-0.1,6.5-0.2,8.4-0.2c13.7-0.1,21.7,0.3,32.8,0.9c-0.1,0-0.2-0.1-0.3-0.1c0.3,0,0.6,0.1,0.9,0.1
	c0.3,0,0.6,0,0.9,0.1c-0.1,0-0.3,0-0.4,0c2.4,0.4,4.7,1,6.6,2.5c2.2,1.7,3.4,4.4,4,6.8C-272.4,280.4-271.7,285.9-271.9,292.9z
	 M-275.4,275.7c-0.4-2.5-1.1-4.8-3-6.5c-1.6-1.5-4-2.4-6.5-3.1c-11.3,0.6-19.4,0.9-33.2,1c-1.9,0-4.8,0.1-8.4,0.2
	c-3.4,0.2-8.5-0.5-10.8,2.5c-1.1,1.6-1.3,3.8-1.4,6.3c-0.1,2.4-0.2,5-0.3,7.5c-0.1,5.1-0.2,10.4-0.2,15.5c0,5.2-0.1,10.2-0.2,14.9
	c0,4.6-0.7,9.1,0.6,12c1.3,2.9,4.3,3.8,6.2,4.3c2,0.4,3.2,0.6,3.2,0.6s4.7,0.9,12.1,1.4c7.4,0.5,17.5,0.4,28.1,0.1
	c2.6-0.2,5.5,0.1,7.6-0.6c2.1-0.6,3.8-2.8,5.1-4.8c1.3-1.9,1.3-4.3,1.5-6.8c0.2-2.4,0.2-4.8,0.2-7c-0.2-9.1,0.4-16.7,0.5-20.4
	C-273.9,286-274.3,280.6-275.4,275.7z"/>
</svg>
